<svg xmlns="http://www.w3.org/2000/svg" xmlns:xlink="http://www.w3.org/1999/xlink" width="500"
    zoomAndPan="magnify" viewBox="0 0 375 374.999991" height="500"
    preserveAspectRatio="xMidYMid meet" version="1.0">
    <defs>
        <clipPath id="5a5664b3de">
            <path
                d="M 92.421875 150.824219 L 312.171875 150.824219 L 312.171875 370.574219 L 92.421875 370.574219 Z M 92.421875 150.824219 "
                clip-rule="nonzero" />
        </clipPath>
        <clipPath id="781c4d3005">
            <path d="M 202 57 L 321 57 L 321 146 L 202 146 Z M 202 57 " clip-rule="nonzero" />
        </clipPath>
        <clipPath id="21615117fe">
            <path
                d="M 212.0625 44.835938 L 321.058594 61.414062 L 304.480469 170.410156 L 195.484375 153.832031 Z M 212.0625 44.835938 "
                clip-rule="nonzero" />
        </clipPath>
        <clipPath id="cd1b13f67d">
            <path
                d="M 212.0625 44.835938 L 321.058594 61.414062 L 304.480469 170.410156 L 195.484375 153.832031 Z M 212.0625 44.835938 "
                clip-rule="nonzero" />
        </clipPath>
        <clipPath id="9ba54bca29">
            <path
                d="M 212.0625 44.835938 L 321.058594 61.414062 L 304.480469 170.410156 L 195.484375 153.832031 Z M 212.0625 44.835938 "
                clip-rule="nonzero" />
        </clipPath>
        <clipPath id="e4407c7a5b">
            <path d="M 195 79 L 278 79 L 278 155 L 195 155 Z M 195 79 " clip-rule="nonzero" />
        </clipPath>
        <clipPath id="d8c63d78c6">
            <path
                d="M 212.0625 44.835938 L 321.058594 61.414062 L 304.480469 170.410156 L 195.484375 153.832031 Z M 212.0625 44.835938 "
                clip-rule="nonzero" />
        </clipPath>
        <clipPath id="75fe306ff7">
            <path
                d="M 212.0625 44.835938 L 321.058594 61.414062 L 304.480469 170.410156 L 195.484375 153.832031 Z M 212.0625 44.835938 "
                clip-rule="nonzero" />
        </clipPath>
        <clipPath id="4da9a9e557">
            <path
                d="M 212.0625 44.835938 L 321.058594 61.414062 L 304.480469 170.410156 L 195.484375 153.832031 Z M 212.0625 44.835938 "
                clip-rule="nonzero" />
        </clipPath>
        <clipPath id="8614fc8d5c">
            <path d="M 44 6 L 203 6 L 203 164 L 44 164 Z M 44 6 " clip-rule="nonzero" />
        </clipPath>
        <clipPath id="4f0a894099">
            <path
                d="M 44.84375 13.875 L 194.652344 6.3125 L 202.21875 156.121094 L 52.40625 163.683594 Z M 44.84375 13.875 "
                clip-rule="nonzero" />
        </clipPath>
        <clipPath id="6c144c089b">
            <path d="M 0.640625 7 L 155 7 L 155 133 L 0.640625 133 Z M 0.640625 7 "
                clip-rule="nonzero" />
        </clipPath>
        <clipPath id="f9c035ddad">
            <path
                d="M 0.84375 7.875 L 150.652344 0.3125 L 158.21875 150.121094 L 8.40625 157.683594 Z M 0.84375 7.875 "
                clip-rule="nonzero" />
        </clipPath>
        <clipPath id="5d871d1f8e">
            <path
                d="M 150.605469 0.3125 L 0.796875 7.878906 L 8.359375 157.6875 L 158.171875 150.125 Z M 150.605469 0.3125 "
                clip-rule="nonzero" />
        </clipPath>
        <clipPath id="83bfda8479">
            <path
                d="M 150.605469 0.3125 L 0.796875 7.878906 L 8.359375 157.6875 L 158.171875 150.125 Z M 150.605469 0.3125 "
                clip-rule="nonzero" />
        </clipPath>
        <clipPath id="4708c8c96d">
            <path d="M 57 39 L 158.320312 39 L 158.320312 151 L 57 151 Z M 57 39 "
                clip-rule="nonzero" />
        </clipPath>
        <clipPath id="d128d9d480">
            <path
                d="M 0.84375 7.875 L 150.652344 0.3125 L 158.21875 150.121094 L 8.40625 157.683594 Z M 0.84375 7.875 "
                clip-rule="nonzero" />
        </clipPath>
        <clipPath id="4dc48d8ad0">
            <path
                d="M 150.605469 0.3125 L 0.796875 7.878906 L 8.359375 157.6875 L 158.171875 150.125 Z M 150.605469 0.3125 "
                clip-rule="nonzero" />
        </clipPath>
        <clipPath id="b0a8896093">
            <path
                d="M 150.605469 0.3125 L 0.796875 7.878906 L 8.359375 157.6875 L 158.171875 150.125 Z M 150.605469 0.3125 "
                clip-rule="nonzero" />
        </clipPath>
        <clipPath id="3608f4e96d">
            <rect x="0" width="159" y="0" height="158" />
        </clipPath>
    </defs>
    <g clip-path="url(#5a5664b3de)">
        <path fill="#000000"
            d="M 288.046875 192.039062 C 288.046875 192.039062 288.046875 192.015625 288.046875 192.039062 C 267.046875 165.839844 235.796875 150.824219 202.296875 150.824219 C 168.796875 150.824219 137.542969 165.839844 116.542969 192.015625 C 100.769531 211.71875 92.421875 235.453125 92.421875 260.699219 C 92.421875 285.945312 100.769531 309.679688 116.542969 329.382812 C 137.542969 355.558594 168.796875 370.574219 202.296875 370.574219 C 235.796875 370.574219 267.050781 355.558594 288.046875 329.382812 C 303.820312 309.679688 312.171875 285.945312 312.171875 260.699219 C 312.171875 235.453125 303.820312 211.71875 288.046875 192.039062 Z M 282.96875 319.960938 C 274.324219 315.222656 264.191406 311.363281 253.082031 308.433594 C 256.207031 295.445312 258.089844 280.964844 258.40625 265.582031 L 302.28125 265.582031 C 301.355469 285.359375 294.738281 304.015625 282.96875 319.960938 Z M 121.625 319.960938 C 109.855469 304.015625 103.238281 285.359375 102.308594 265.582031 L 146.1875 265.582031 C 146.503906 280.964844 148.382812 295.445312 151.507812 308.433594 C 140.398438 311.363281 130.292969 315.222656 121.625 319.960938 Z M 121.625 201.441406 C 130.265625 206.179688 140.398438 210.035156 151.507812 212.964844 C 148.382812 225.957031 146.527344 240.433594 146.1875 255.816406 L 102.308594 255.816406 C 103.238281 236.039062 109.855469 217.386719 121.625 201.441406 Z M 207.179688 219.117188 C 219.777344 218.851562 232.011719 217.507812 243.414062 215.1875 C 246.417969 227.542969 248.273438 241.3125 248.613281 255.792969 L 207.179688 255.792969 Z M 207.179688 209.351562 L 207.179688 161.179688 C 221.023438 164.472656 233.28125 181.566406 240.824219 205.761719 C 230.253906 207.863281 218.898438 209.082031 207.179688 209.351562 Z M 197.414062 161.179688 L 197.414062 209.351562 C 185.691406 209.082031 174.339844 207.863281 163.765625 205.761719 C 171.3125 181.589844 183.566406 164.472656 197.414062 161.179688 Z M 197.414062 219.117188 L 197.414062 255.816406 L 155.953125 255.816406 C 156.292969 241.335938 158.152344 227.566406 161.152344 215.210938 C 172.582031 217.507812 184.8125 218.851562 197.414062 219.117188 Z M 155.953125 265.582031 L 197.414062 265.582031 L 197.414062 302.28125 C 184.8125 302.550781 172.582031 303.894531 161.179688 306.210938 C 158.152344 293.832031 156.292969 280.0625 155.953125 265.582031 Z M 197.414062 312.046875 L 197.414062 360.222656 C 183.566406 356.925781 171.3125 339.835938 163.765625 315.613281 C 174.339844 313.539062 185.691406 312.316406 197.414062 312.046875 Z M 207.179688 360.222656 L 207.179688 312.046875 C 218.898438 312.316406 230.253906 313.539062 240.824219 315.636719 C 233.28125 339.808594 221.023438 356.925781 207.179688 360.222656 Z M 207.179688 302.28125 L 207.179688 265.582031 L 248.636719 265.582031 C 248.296875 280.0625 246.441406 293.832031 243.4375 306.1875 C 232.011719 303.894531 219.777344 302.550781 207.179688 302.28125 Z M 258.40625 255.816406 C 258.089844 240.433594 256.207031 225.957031 253.082031 212.964844 C 264.191406 210.058594 274.324219 206.179688 282.96875 201.441406 C 294.738281 217.386719 301.355469 236.039062 302.28125 255.816406 Z M 276.667969 193.726562 C 269.027344 197.730469 260.1875 201.027344 250.519531 203.566406 C 245.488281 187.132812 238.335938 173.65625 229.738281 164.402344 C 247.660156 169.503906 263.921875 179.5625 276.667969 193.726562 Z M 174.875 164.402344 C 166.28125 173.628906 159.128906 187.132812 154.097656 203.566406 C 144.402344 201.027344 135.589844 197.730469 127.945312 193.726562 C 140.667969 179.5625 156.929688 169.503906 174.875 164.402344 Z M 127.921875 327.675781 C 135.566406 323.671875 144.402344 320.375 154.074219 317.835938 C 159.101562 334.269531 166.257812 347.769531 174.851562 357 C 156.929688 351.894531 140.667969 341.835938 127.921875 327.675781 Z M 229.714844 357 C 238.308594 347.769531 245.464844 334.269531 250.496094 317.835938 C 260.1875 320.375 269.003906 323.671875 276.644531 327.675781 C 263.921875 341.835938 247.660156 351.894531 229.714844 357 Z M 229.714844 357 "
            fill-opacity="1" fill-rule="nonzero" />
    </g>
    <g clip-path="url(#781c4d3005)">
        <g clip-path="url(#21615117fe)">
            <g clip-path="url(#cd1b13f67d)">
                <g clip-path="url(#9ba54bca29)">
                    <path fill="#000000"
                        d="M 239.855469 145.375 C 214.667969 141.542969 200.015625 124.039062 203.394531 101.8125 C 206 84.679688 222.441406 46.414062 318.582031 61.039062 C 319.582031 61.191406 320.398438 61.933594 320.636719 62.917969 C 320.882812 63.902344 320.507812 64.9375 319.691406 65.535156 C 309.679688 72.910156 297.136719 84.082031 288.992188 105.242188 C 282.9375 120.957031 271.667969 150.214844 239.855469 145.375 Z M 311.972656 65.152344 C 225.496094 53.550781 210.679688 87.261719 208.351562 102.566406 C 205.421875 121.828125 218.382812 137.039062 240.609375 140.421875 C 266.292969 144.328125 276.632812 123.378906 284.3125 103.441406 C 291.671875 84.308594 302.414062 72.921875 311.972656 65.152344 Z M 311.972656 65.152344 "
                        fill-opacity="1" fill-rule="nonzero" />
                </g>
            </g>
        </g>
    </g>
    <g clip-path="url(#e4407c7a5b)">
        <g clip-path="url(#d8c63d78c6)">
            <g clip-path="url(#75fe306ff7)">
                <g clip-path="url(#4da9a9e557)">
                    <path fill="#000000"
                        d="M 197.960938 154.210938 C 196.59375 154.003906 195.652344 152.722656 195.859375 151.355469 C 198.101562 136.628906 230.828125 93.25 274.0625 79.867188 C 275.378906 79.464844 276.78125 80.199219 277.195312 81.519531 C 277.601562 82.835938 276.863281 84.242188 275.542969 84.652344 C 231.886719 98.171875 202.574219 140.53125 200.816406 152.109375 C 200.605469 153.476562 199.328125 154.417969 197.960938 154.210938 Z M 197.960938 154.210938 "
                        fill-opacity="1" fill-rule="nonzero" />
                </g>
            </g>
        </g>
    </g>
    <g clip-path="url(#8614fc8d5c)">
        <g clip-path="url(#4f0a894099)">
            <g transform="matrix(1, 0, 0, 1, 44, 6)">
                <g clip-path="url(#3608f4e96d)">
                    <g clip-path="url(#6c144c089b)">
                        <g clip-path="url(#f9c035ddad)">
                            <g clip-path="url(#5d871d1f8e)">
                                <g clip-path="url(#83bfda8479)">
                                    <path fill="#000000"
                                        d="M 99.257812 132.617188 C 133.878906 130.867188 156.101562 109.171875 154.558594 78.625 C 153.371094 55.074219 136.339844 1.035156 4.203125 7.707031 C 2.828125 7.773438 1.621094 8.667969 1.164062 9.96875 C 0.695312 11.269531 1.0625 12.71875 2.085938 13.644531 C 14.632812 24.992188 30.085938 41.824219 38.222656 71.582031 C 44.273438 93.679688 55.535156 134.824219 99.257812 132.617188 Z M 12.585938 14.175781 C 131.230469 10.277344 146.6875 57.933594 147.75 78.96875 C 149.085938 105.441406 129.460938 124.265625 98.914062 125.808594 C 63.613281 127.589844 52.476562 97.820312 44.800781 69.78125 C 37.449219 42.878906 24.464844 25.996094 12.585938 14.175781 Z M 12.585938 14.175781 "
                                        fill-opacity="1" fill-rule="nonzero" />
                                </g>
                            </g>
                        </g>
                    </g>
                    <g clip-path="url(#4708c8c96d)">
                        <g clip-path="url(#d128d9d480)">
                            <g clip-path="url(#4dc48d8ad0)">
                                <g clip-path="url(#b0a8896093)">
                                    <path fill="#000000"
                                        d="M 154.765625 150.296875 C 156.644531 150.199219 158.09375 148.597656 158 146.71875 C 156.976562 126.472656 118.59375 63.289062 61.898438 39.269531 C 60.167969 38.542969 58.167969 39.347656 57.429688 41.078125 C 56.699219 42.808594 57.507812 44.808594 59.238281 45.546875 C 116.492188 69.808594 150.386719 131.148438 151.1875 147.0625 C 151.285156 148.941406 152.886719 150.390625 154.765625 150.296875 Z M 154.765625 150.296875 "
                                        fill-opacity="1" fill-rule="nonzero" />
                                </g>
                            </g>
                        </g>
                    </g>
                </g>
            </g>
        </g>
    </g>
</svg>