<svg xmlns="http://www.w3.org/2000/svg" width="500" viewBox="0 0 375 375" height="500" version="1.0">
    <defs>
        <clipPath id="k">
            <path d="m44.844 13.875 149.808-7.563 7.567 149.81-149.813 7.562zm0 0" />
        </clipPath>
        <clipPath id="a">
            <path d="M92.422 150.824h219.75v219.75H92.422zm0 0" />
        </clipPath>
        <clipPath id="c">
            <path d="m212.063 44.836 108.996 16.578L304.48 170.41l-108.996-16.578zm0 0" />
        </clipPath>
        <clipPath id="d">
            <path d="m212.063 44.836 108.996 16.578L304.48 170.41l-108.996-16.578zm0 0" />
        </clipPath>
        <clipPath id="e">
            <path d="m212.063 44.836 108.996 16.578L304.48 170.41l-108.996-16.578zm0 0" />
        </clipPath>
        <clipPath id="f">
            <path d="M195 79h83v76h-83zm0 0" />
        </clipPath>
        <clipPath id="g">
            <path d="m212.063 44.836 108.996 16.578L304.48 170.41l-108.996-16.578zm0 0" />
        </clipPath>
        <clipPath id="h">
            <path d="m212.063 44.836 108.996 16.578L304.48 170.41l-108.996-16.578zm0 0" />
        </clipPath>
        <clipPath id="i">
            <path d="m212.063 44.836 108.996 16.578L304.48 170.41l-108.996-16.578zm0 0" />
        </clipPath>
        <clipPath id="j">
            <path d="M44 6h159v158H44zm0 0" />
        </clipPath>
        <clipPath id="b">
            <path d="M202 57h119v89H202zm0 0" />
        </clipPath>
        <clipPath id="m">
            <path d="M.64 7H155v126H.64zm0 0" />
        </clipPath>
        <clipPath id="n">
            <path d="M.844 7.875 150.652.312l7.567 149.81-149.813 7.562zm0 0" />
        </clipPath>
        <clipPath id="o">
            <path d="M150.605.313.797 7.878l7.562 149.809 149.813-7.563zm0 0" />
        </clipPath>
        <clipPath id="p">
            <path d="M150.605.313.797 7.878l7.562 149.809 149.813-7.563zm0 0" />
        </clipPath>
        <clipPath id="q">
            <path d="M57 39h101.32v112H57zm0 0" />
        </clipPath>
        <clipPath id="r">
            <path d="M.844 7.875 150.652.312l7.567 149.81-149.813 7.562zm0 0" />
        </clipPath>
        <clipPath id="s">
            <path d="M150.605.313.797 7.878l7.562 149.809 149.813-7.563zm0 0" />
        </clipPath>
        <clipPath id="t">
            <path d="M150.605.313.797 7.878l7.562 149.809 149.813-7.563zm0 0" />
        </clipPath>
        <clipPath id="l">
            <path d="M0 0h159v158H0z" />
        </clipPath>
    </defs>
    <g clip-path="url(#a)">
        <path
            d="M288.047 192.04s0-.024 0 0c-21-26.2-52.25-41.216-85.75-41.216s-64.754 15.016-85.754 41.192c-15.773 19.703-24.121 43.437-24.121 68.683 0 25.246 8.348 48.98 24.121 68.684 21 26.176 52.254 41.191 85.754 41.191 33.5 0 64.754-15.015 85.75-41.191 15.773-19.703 24.125-43.438 24.125-68.684 0-25.246-8.352-48.98-24.125-68.66zm-5.078 127.92c-8.645-4.737-18.778-8.597-29.887-11.526 3.125-12.989 5.008-27.47 5.324-42.852h43.875c-.926 19.777-7.543 38.434-19.312 54.379zm-161.344 0c-11.77-15.944-18.387-34.6-19.316-54.378h43.879c.316 15.383 2.195 29.863 5.32 42.852-11.11 2.93-21.215 6.789-29.883 11.527zm0-118.519c8.64 4.739 18.773 8.594 29.883 11.524-3.125 12.992-4.98 27.469-5.32 42.851h-43.88c.93-19.777 7.547-38.43 19.317-54.375zm85.555 17.676c12.597-.265 24.832-1.61 36.234-3.93 3.004 12.356 4.86 26.125 5.2 40.606H207.18zm0-9.765V161.18c13.843 3.293 26.101 20.386 33.644 44.582-10.57 2.101-21.926 3.32-33.644 3.59zm-9.766-48.172v48.172c-11.723-.27-23.074-1.489-33.648-3.59 7.547-24.172 19.8-41.29 33.648-44.582zm0 57.937v36.7h-41.46c.339-14.481 2.198-28.25 5.198-40.606 11.43 2.297 23.66 3.64 36.262 3.906zm-41.46 46.465h41.46v36.7c-12.601.269-24.832 1.613-36.234 3.929-3.028-12.379-4.887-26.149-5.227-40.629zm41.46 46.465v48.176c-13.848-3.297-26.101-20.387-33.648-44.61 10.574-2.074 21.925-3.297 33.648-3.566zm9.766 48.176v-48.176c11.718.27 23.074 1.492 33.644 3.59-7.543 24.172-19.8 41.289-33.644 44.586zm0-57.942v-36.699h41.457c-.34 14.48-2.196 28.25-5.2 40.606-11.425-2.293-23.66-3.637-36.257-3.907zm51.226-46.465c-.316-15.382-2.199-29.859-5.324-42.851 11.11-2.906 21.242-6.785 29.887-11.524 11.77 15.946 18.386 34.598 19.312 54.375zm18.262-62.09c-7.64 4.004-16.48 7.301-26.148 9.84-5.032-16.433-12.184-29.91-20.782-39.164 17.922 5.102 34.184 15.16 46.93 29.325zm-101.793-29.324c-8.594 9.227-15.746 22.73-20.777 39.164-9.696-2.539-18.508-5.836-26.153-9.84 12.723-14.163 28.985-24.222 46.93-29.324zm-46.953 163.274c7.644-4.004 16.48-7.301 26.152-9.84 5.028 16.434 12.184 29.934 20.778 39.164-17.922-5.105-34.184-15.164-46.93-29.324zM229.715 357c8.594-9.23 15.75-22.73 20.781-39.164 9.691 2.539 18.508 5.836 26.149 9.84-12.723 14.16-28.985 24.219-46.93 29.324zm0 0" />
    </g>
    <g clip-path="url(#b)">
        <g clip-path="url(#c)">
            <g clip-path="url(#d)">
                <g clip-path="url(#e)">
                    <path
                        d="M239.855 145.375c-25.187-3.832-39.84-21.336-36.46-43.563C206 84.68 222.44 46.414 318.582 61.04c1 .152 1.816.895 2.055 1.879a2.495 2.495 0 0 1-.946 2.617c-10.011 7.375-22.554 18.547-30.699 39.707-6.055 15.715-17.324 44.973-49.137 40.133zm72.118-80.223c-86.477-11.601-101.293 22.11-103.621 37.414-2.93 19.262 10.03 34.473 32.257 37.856 25.684 3.906 36.024-17.043 43.703-36.98 7.36-19.133 18.102-30.52 27.66-38.29zm0 0" />
                </g>
            </g>
        </g>
    </g>
    <g clip-path="url(#f)">
        <g clip-path="url(#g)">
            <g clip-path="url(#h)">
                <g clip-path="url(#i)">
                    <path
                        d="M197.96 154.21a2.51 2.51 0 0 1-2.1-2.855c2.242-14.726 34.968-58.105 78.202-71.488a2.515 2.515 0 0 1 3.133 1.653 2.51 2.51 0 0 1-1.652 3.132c-43.656 13.52-72.969 55.88-74.727 67.457a2.511 2.511 0 0 1-2.855 2.102zm0 0" />
                </g>
            </g>
        </g>
    </g>
    <g clip-path="url(#j)">
        <g clip-path="url(#k)">
            <g clip-path="url(#l)" transform="translate(44 6)">
                <g clip-path="url(#m)">
                    <g clip-path="url(#n)">
                        <g clip-path="url(#o)">
                            <g clip-path="url(#p)">
                                <path
                                    d="M99.258 132.617c34.62-1.75 56.844-23.445 55.3-53.992-1.187-23.55-18.218-77.59-150.355-70.918a3.398 3.398 0 0 0-3.039 2.262 3.4 3.4 0 0 0 .922 3.676c12.547 11.347 28 28.18 36.137 57.937 6.05 22.098 17.312 63.242 61.035 61.035zM12.586 14.176C131.23 10.277 146.687 57.934 147.75 78.969c1.336 26.472-18.29 45.297-48.836 46.84-35.3 1.78-46.437-27.989-54.113-56.028-7.352-26.902-20.336-43.785-32.215-55.605zm0 0" />
                            </g>
                        </g>
                    </g>
                </g>
                <g clip-path="url(#q)">
                    <g clip-path="url(#r)">
                        <g clip-path="url(#s)">
                            <g clip-path="url(#t)">
                                <path
                                    d="M154.766 150.297a3.416 3.416 0 0 0 3.234-3.578c-1.023-20.246-39.406-83.43-96.102-107.45a3.42 3.42 0 0 0-4.468 1.81 3.417 3.417 0 0 0 1.808 4.468c57.254 24.262 91.149 85.601 91.95 101.516a3.416 3.416 0 0 0 3.578 3.234zm0 0" />
                            </g>
                        </g>
                    </g>
                </g>
            </g>
        </g>
    </g>
</svg>