<svg xmlns="http://www.w3.org/2000/svg" xmlns:xlink="http://www.w3.org/1999/xlink" style="display:none">
    <symbol id="logo" viewBox="0 0 375 374.999991">
      <defs>
        <clipPath id="5a5664b3de">
          <path d="M 92.421875 150.824219 L 312.171875 150.824219 L 312.171875 370.574219 L 92.421875 370.574219 Z M 92.421875 150.824219 " clip-rule="nonzero"/>
        </clipPath>
        <clipPath id="781c4d3005">
          <path d="M 202 57 L 321 57 L 321 146 L 202 146 Z M 202 57 " clip-rule="nonzero"/>
        </clipPath>
        <clipPath id="21615117fe">
          <path d="M 212.0625 44.835938 L 321.058594 61.414062 L 304.480469 170.410156 L 195.484375 153.832031 Z M 212.0625 44.835938 " clip-rule="nonzero"/>
        </clipPath>
        <clipPath id="cd1b13f67d">
          <path d="M 212.0625 44.835938 L 321.058594 61.414062 L 304.480469 170.410156 L 195.484375 153.832031 Z M 212.0625 44.835938 " clip-rule="nonzero"/>
        </clipPath>
        <clipPath id="9ba54bca29">
          <path d="M 212.0625 44.835938 L 321.058594 61.414062 L 304.480469 170.410156 L 195.484375 153.832031 Z M 212.0625 44.835938 " clip-rule="nonzero"/>
        </clipPath>
        <clipPath id="e4407c7a5b">
          <path d="M 195 79 L 278 79 L 278 155 L 195 155 Z M 195 79 " clip-rule="nonzero"/>
        </clipPath>
        <clipPath id="d8c63d78c6">
          <path d="M 212.0625 44.835938 L 321.058594 61.414062 L 304.480469 170.410156 L 195.484375 153.832031 Z M 212.0625 44.835938 " clip-rule="nonzero"/>
        </clipPath>
        <clipPath id="75fe306ff7">
          <path d="M 212.0625 44.835938 L 321.058594 61.414062 L 304.480469 170.410156 L 195.484375 153.832031 Z M 212.0625 44.835938 " clip-rule="nonzero"/>
        </clipPath>
        <clipPath id="4da9a9e557">
          <path d="M 212.0625 44.835938 L 321.058594 61.414062 L 304.480469 170.410156 L 195.484375 153.832031 Z M 212.0625 44.835938 " clip-rule="nonzero"/>
        </clipPath>
        <clipPath id="8614fc8d5c">
          <path d="M 44 6 L 203 6 L 203 164 L 44 164 Z M 44 6 " clip-rule="nonzero"/>
        </clipPath>
        <clipPath id="4f0a894099">
          <path d="M 44.84375 13.875 L 194.652344 6.3125 L 202.21875 156.121094 L 52.40625 163.683594 Z M 44.84375 13.875 " clip-rule="nonzero"/>
        </clipPath>
        <clipPath id="6c144c089b">
          <path d="M 0.640625 7 L 155 7 L 155 133 L 0.640625 133 Z M 0.640625 7 " clip-rule="nonzero"/>
        </clipPath>
        <clipPath id="f9c035ddad">
          <path d="M 0.84375 7.875 L 150.652344 0.3125 L 158.21875 150.121094 L 8.40625 157.683594 Z M 0.84375 7.875 " clip-rule="nonzero"/>
        </clipPath>
        <clipPath id="5d871d1f8e">
          <path d="M 150.605469 0.3125 L 0.796875 7.878906 L 8.359375 157.6875 L 158.171875 150.125 Z M 150.605469 0.3125 " clip-rule="nonzero"/>
        </clipPath>
        <clipPath id="83bfda8479">
          <path d="M 150.605469 0.3125 L 0.796875 7.878906 L 8.359375 157.6875 L 158.171875 150.125 Z M 150.605469 0.3125 " clip-rule="nonzero"/>
        </clipPath>
        <clipPath id="4708c8c96d">
          <path d="M 57 39 L 158.320312 39 L 158.320312 151 L 57 151 Z M 57 39 " clip-rule="nonzero"/>
        </clipPath>
        <clipPath id="d128d9d480">
          <path d="M 0.84375 7.875 L 150.652344 0.3125 L 158.21875 150.121094 L 8.40625 157.683594 Z M 0.84375 7.875 " clip-rule="nonzero"/>
        </clipPath>
        <clipPath id="4dc48d8ad0">
          <path d="M 150.605469 0.3125 L 0.796875 7.878906 L 8.359375 157.6875 L 158.171875 150.125 Z M 150.605469 0.3125 " clip-rule="nonzero"/>
        </clipPath>
        <clipPath id="b0a8896093">
          <path d="M 150.605469 0.3125 L 0.796875 7.878906 L 8.359375 157.6875 L 158.171875 150.125 Z M 150.605469 0.3125 " clip-rule="nonzero"/>
        </clipPath>
        <clipPath id="3608f4e96d">
          <rect x="0" y="0" width="159" height="158"/>
        </clipPath>
      </defs>
  
      <g clip-path="url(#5a5664b3de)">
        <path fill="currentColor" fill-opacity="1" fill-rule="nonzero"
          d="M 288.046875 192.039062 C ... Z M 229.714844 357 "/>
      </g>
  
      <g clip-path="url(#781c4d3005)">
        <g clip-path="url(#21615117fe)">
          <g clip-path="url(#cd1b13f67d)">
            <g clip-path="url(#9ba54bca29)">
              <path fill="currentColor" fill-opacity="1" fill-rule="nonzero"
                d="M 239.855469 145.375 C ... Z M 311.972656 65.152344 "/>
            </g>
          </g>
        </g>
      </g>
  
      <g clip-path="url(#e4407c7a5b)">
        <g clip-path="url(#d8c63d78c6)">
          <g clip-path="url(#75fe306ff7)">
            <g clip-path="url(#4da9a9e557)">
              <path fill="currentColor" fill-opacity="1" fill-rule="nonzero"
                d="M 197.960938 154.210938 C ... "/>
            </g>
          </g>
        </g>
      </g>
  
      <g clip-path="url(#8614fc8d5c)">
        <g clip-path="url(#4f0a894099)">
          <g transform="matrix(1, 0, 0, 1, 44, 6)">
            <g clip-path="url(#3608f4e96d)">
              <g clip-path="url(#6c144c089b)">
                <g clip-path="url(#f9c035ddad)">
                  <g clip-path="url(#5d871d1f8e)">
                    <g clip-path="url(#83bfda8479)">
                      <path fill="currentColor" fill-opacity="1" fill-rule="nonzero"
                        d="M 99.257812 132.617188 C ... Z M 12.585938 14.175781 "/>
                    </g>
                  </g>
                </g>
              </g>
              <g clip-path="url(#4708c8c96d)">
                <g clip-path="url(#d128d9d480)">
                  <g clip-path="url(#4dc48d8ad0)">
                    <g clip-path="url(#b0a8896093)">
                      <path fill="currentColor" fill-opacity="1" fill-rule="nonzero"
                        d="M 154.765625 150.296875 C ... "/>
                    </g>
                  </g>
                </g>
              </g>
            </g>
          </g>
        </g>
      </g>
  
    </symbol>
  </svg>
  