<?xml version="1.0" encoding="UTF-8" standalone="no"?>
<!-- Created with Inkscape (http://www.inkscape.org/) -->

<svg
   width="132.43797mm"
   height="72.126823mm"
   viewBox="0 0 132.43798 72.126823"
   version="1.1"
   id="svg1"
   xml:space="preserve"
   inkscape:version="1.4.2 (f4327f4, 2025-05-13)"
   sodipodi:docname="plane-flight-1.svg"
   xmlns:inkscape="http://www.inkscape.org/namespaces/inkscape"
   xmlns:sodipodi="http://sodipodi.sourceforge.net/DTD/sodipodi-0.dtd"
   xmlns="http://www.w3.org/2000/svg"
   xmlns:svg="http://www.w3.org/2000/svg"><sodipodi:namedview
     id="namedview1"
     pagecolor="#505050"
     bordercolor="#eeeeee"
     borderopacity="1"
     inkscape:showpageshadow="0"
     inkscape:pageopacity="0"
     inkscape:pagecheckerboard="true"
     inkscape:deskcolor="#505050"
     inkscape:document-units="mm"
     inkscape:zoom="0.34119669"
     inkscape:cx="-370.75389"
     inkscape:cy="199.29853"
     inkscape:window-width="1920"
     inkscape:window-height="1010"
     inkscape:window-x="-6"
     inkscape:window-y="-6"
     inkscape:window-maximized="1"
     inkscape:current-layer="layer1"
     showguides="true" /><defs
     id="defs1"><inkscape:path-effect
       effect="perspective-envelope"
       up_left_point="-417.84147,59.695192"
       up_right_point="-293.68868,59.695192"
       down_left_point="-417.84147,143.63233"
       down_right_point="-293.68868,143.63233"
       id="path-effect58"
       is_visible="true"
       lpeversion="1"
       deform_type="envelope_deformation"
       horizontal_mirror="false"
       vertical_mirror="false"
       overflow_perspective="false" /><inkscape:path-effect
       effect="perspective-envelope"
       up_left_point="-417.0936,9.7908044"
       up_right_point="-233.3219,-0.19115937"
       down_left_point="-417.0936,189.90875"
       down_right_point="-233.3219,199.89071"
       id="path-effect53"
       is_visible="true"
       lpeversion="1"
       deform_type="envelope_deformation"
       horizontal_mirror="true"
       vertical_mirror="false"
       overflow_perspective="false" /><inkscape:path-effect
       effect="perspective-envelope"
       up_left_point="-432.29356,-120.69875"
       up_right_point="-262.87368,-120.69875"
       down_left_point="-432.29356,120.69875"
       down_right_point="-262.87368,120.69875"
       id="path-effect25"
       is_visible="true"
       lpeversion="1"
       deform_type="envelope_deformation"
       horizontal_mirror="true"
       vertical_mirror="false"
       overflow_perspective="false" /><inkscape:path-effect
       effect="perspective-envelope"
       up_left_point="45.209671,90.439708"
       up_right_point="136.05869,91.082356"
       down_left_point="45.209671,180.88946"
       down_right_point="136.05869,180.24681"
       id="path-effect10"
       is_visible="true"
       lpeversion="1"
       deform_type="envelope_deformation"
       horizontal_mirror="true"
       vertical_mirror="false"
       overflow_perspective="false" /><inkscape:path-effect
       effect="perspective-envelope"
       up_left_point="45.209671,90.439708"
       up_right_point="136.05869,91.082356"
       down_left_point="45.209671,180.88946"
       down_right_point="136.05869,180.24681"
       id="path-effect8"
       is_visible="true"
       lpeversion="1"
       deform_type="envelope_deformation"
       horizontal_mirror="true"
       vertical_mirror="false"
       overflow_perspective="false" /><inkscape:path-effect
       effect="perspective-envelope"
       up_left_point="0.74872634,4.5659419"
       up_right_point="123.71337,4.5659419"
       down_left_point="0.74872634,94.371795"
       down_right_point="123.71337,94.371795"
       id="path-effect6"
       is_visible="true"
       lpeversion="1"
       deform_type="envelope_deformation"
       horizontal_mirror="true"
       vertical_mirror="false"
       overflow_perspective="false" /><inkscape:path-effect
       effect="perspective-envelope"
       up_left_point="9.2355123,161.90656"
       up_right_point="128.65468,161.90656"
       down_left_point="9.2355123,268.04174"
       down_right_point="128.65468,268.04174"
       id="path-effect5"
       is_visible="true"
       lpeversion="1"
       deform_type="envelope_deformation"
       horizontal_mirror="true"
       vertical_mirror="false"
       overflow_perspective="false" /><inkscape:path-effect
       effect="perspective-envelope"
       up_left_point="6.8453605,214.75783"
       up_right_point="115.44443,152.66584"
       down_left_point="20.780579,256.85813"
       down_right_point="143.39848,239.8121"
       id="path-effect4"
       is_visible="true"
       lpeversion="1"
       deform_type="envelope_deformation"
       horizontal_mirror="false"
       vertical_mirror="false"
       overflow_perspective="false" /><inkscape:path-effect
       effect="perspective-envelope"
       up_left_point="5.7941801,86.056038"
       up_right_point="88.149307,70.12501"
       down_left_point="5.7941801,185.27313"
       down_right_point="88.149307,201.20416"
       id="path-effect1"
       is_visible="true"
       lpeversion="1"
       deform_type="envelope_deformation"
       horizontal_mirror="true"
       vertical_mirror="false"
       overflow_perspective="false" /></defs><g
     inkscape:label="Layer 1"
     inkscape:groupmode="layer"
     id="layer1"
     transform="translate(-49.445162,-89.843401)"><g
       id="g25"
       transform="matrix(1.0641859,-0.01320073,-0.0181004,0.84612762,495.51081,35.448237)"
       style="display:inline"><path
         style="fill:#fef2e1"
         d="m -334.39739,129.89754 c -3.30439,-2.44082 -13.08266,-9.63258 -21.7295,-15.98168 -8.64684,-6.34911 -15.62187,-11.62094 -15.50007,-11.71519 0.43995,-0.34042 74.76139,-39.290162 74.81148,-39.206565 0.0658,0.109795 -31.28837,71.146885 -31.45171,71.258085 -0.0672,0.0458 -2.82582,-1.91382 -6.1302,-4.35465 z M -399.9161,87.420901 c -7.47457,-4.831623 -13.68107,-8.891929 -13.79223,-9.022902 -0.11115,-0.130973 24.59804,-3.688445 54.90932,-7.905493 30.31127,-4.217049 55.29349,-7.702769 55.51605,-7.746045 0.22255,-0.04327 -18.25253,7.478511 -41.05575,16.715081 -22.80321,9.236571 -41.57893,16.782597 -41.72382,16.768947 -0.14489,-0.01365 -6.379,-3.977964 -13.85357,-8.809588 z"
         id="path31" /><path
         style="fill:#d5c7b6"
         d="m -376.95242,139.01946 c 0.25264,-2.94397 3.90418,-34.63129 4.00018,-34.71276 0.0669,-0.0568 4.0797,2.8105 8.91739,6.37169 6.03737,4.44432 8.71638,6.56325 8.54258,6.75663 -0.52638,0.58569 -19.93111,20.74422 -20.70875,21.51321 l -0.81441,0.80534 z m -1.92752,-5.12944 c -0.12907,-0.7323 -1.52394,-8.84809 -3.09972,-18.0351 -1.57577,-9.187 -2.91219,-16.908989 -2.9698,-17.159969 -0.10812,-0.470951 -0.25115,-0.411634 54.56016,-22.627074 8.68353,-3.519499 15.66018,-6.294124 15.50367,-6.165832 -0.15651,0.128292 -13.51599,7.179506 -29.68774,15.669363 -16.17175,8.489858 -29.61809,15.616882 -29.88075,15.837832 -0.4251,0.35759 -0.68157,2.23704 -2.33436,17.10697 -1.63939,14.74936 -1.88426,16.54936 -2.09146,15.37381 z"
         id="path30" /><path
         style="fill:#a59f97"
         d="m -376.49842,134.06985 c 0.041,-0.43467 0.11204,-0.5759 0.1579,-0.31386 0.0459,0.26205 0.0123,0.61769 -0.0745,0.79031 -0.0868,0.17262 -0.12436,-0.0418 -0.0834,-0.47645 z m -1.26412,-7.13838 c 0.0416,-0.50763 0.11282,-0.71085 0.15837,-0.45161 0.0455,0.25924 0.0115,0.67457 -0.0755,0.92296 -0.0871,0.24838 -0.12438,0.0363 -0.0828,-0.47135 z m 2.26173,-1.80588 c 0.041,-0.43467 0.11205,-0.5759 0.1579,-0.31386 0.0459,0.26205 0.0123,0.61769 -0.0745,0.79031 -0.0868,0.17262 -0.12437,-0.0418 -0.0834,-0.47645 z m -1.26412,-7.13838 c 0.0415,-0.50763 0.11282,-0.71085 0.15837,-0.45161 0.0455,0.25924 0.0116,0.67457 -0.0756,0.92295 -0.0871,0.24839 -0.12437,0.0363 -0.0828,-0.47134 z m 2.26173,-1.80588 c 0.041,-0.43467 0.11205,-0.5759 0.15791,-0.31386 0.0458,0.26205 0.0123,0.61769 -0.0745,0.79031 -0.0868,0.17262 -0.12437,-0.0418 -0.0834,-0.47645 z m -1.26412,-7.13838 c 0.0415,-0.50763 0.11282,-0.71085 0.15837,-0.45161 0.0456,0.25924 0.0116,0.67457 -0.0756,0.92295 -0.0871,0.24839 -0.12437,0.0363 -0.0828,-0.47134 z m 2.26173,-1.80588 c 0.041,-0.43467 0.11205,-0.5759 0.15791,-0.31386 0.0459,0.26205 0.0123,0.61769 -0.0745,0.79031 -0.0868,0.17262 -0.12437,-0.0418 -0.0834,-0.47645 z"
         id="path29" /><path
         style="fill:#8c857a"
         d="m -376.36993,132.62029 c 0.0416,-0.50762 0.11282,-0.71084 0.15837,-0.4516 0.0455,0.25924 0.0115,0.67457 -0.0755,0.92295 -0.0871,0.24839 -0.12437,0.0363 -0.0828,-0.47135 z m -1.52111,-4.23927 c 0.041,-0.43466 0.11205,-0.5759 0.15791,-0.31385 0.0459,0.26204 0.0123,0.61768 -0.0745,0.7903 -0.0869,0.17262 -0.12437,-0.0418 -0.0834,-0.47645 z m 2.51872,-4.70499 c 0.0416,-0.50762 0.11282,-0.71084 0.15837,-0.4516 0.0455,0.25924 0.0116,0.67457 -0.0755,0.92295 -0.0871,0.24839 -0.12437,0.0363 -0.0828,-0.47135 z m -1.52212,-4.10662 c 0.0415,-0.50762 0.11281,-0.71084 0.15837,-0.4516 0.0455,0.25924 0.0115,0.67457 -0.0756,0.92295 -0.0871,0.24839 -0.12438,0.0363 -0.0828,-0.47135 z m 2.51973,-4.83764 c 0.0416,-0.50762 0.11282,-0.71084 0.15837,-0.4516 0.0456,0.25924 0.0116,0.67457 -0.0756,0.92295 -0.0871,0.24839 -0.12437,0.0363 -0.0828,-0.47135 z m -1.52212,-4.10662 c 0.0416,-0.50762 0.11282,-0.71084 0.15837,-0.4516 0.0455,0.25924 0.0115,0.67457 -0.0756,0.92295 -0.0871,0.24839 -0.12437,0.0363 -0.0828,-0.47135 z m 2.51974,-4.83764 c 0.0416,-0.50762 0.11282,-0.71085 0.15837,-0.4516 0.0455,0.25924 0.0115,0.67457 -0.0755,0.92295 -0.0871,0.24838 -0.12438,0.0363 -0.0828,-0.47135 z"
         id="path28" /><path
         style="fill:#625f5a"
         d="m -378.12066,143.52642 c 0.004,-0.0548 0.22914,-0.24542 0.49925,-0.4237 0.4451,-0.29377 0.45366,-0.28368 0.0914,0.10771 -0.38044,0.41106 -0.60843,0.53303 -0.59066,0.31599 z m 0.90779,-4.60389 c 0.0475,-0.58014 0.13321,-1.05097 0.1905,-1.04628 0.0573,0.005 0.11056,0.4869 0.1184,1.07157 0.008,0.58467 -0.0779,1.0555 -0.1905,1.04628 -0.1126,-0.009 -0.16589,-0.49142 -0.1184,-1.07157 z m -0.82055,-8.42941 c 0.0727,-0.8701 0.14849,-1.19027 0.16838,-0.71151 0.0199,0.47877 -0.0396,1.19067 -0.13221,1.58199 -0.0926,0.39133 -0.10888,-3.9e-4 -0.0362,-0.87048 z m 1.8675,-0.11261 c 0.0727,-0.87009 0.14848,-1.19027 0.16837,-0.7115 0.0199,0.47877 -0.0396,1.19066 -0.1322,1.58199 -0.0926,0.39133 -0.10888,-3.9e-4 -0.0362,-0.87049 z m -0.89147,-8.56795 c 0.0727,-0.8701 0.14848,-1.19027 0.16837,-0.7115 0.0199,0.47876 -0.0396,1.19066 -0.1322,1.58198 -0.0926,0.39133 -0.10888,-3.9e-4 -0.0362,-0.87048 z m 1.88908,-0.37631 c 0.0727,-0.87009 0.14848,-1.19027 0.16838,-0.7115 0.0199,0.47877 -0.0396,1.19066 -0.13221,1.58199 -0.0926,0.39133 -0.10888,-3.9e-4 -0.0362,-0.87049 z m -0.89147,-8.56795 c 0.0727,-0.8701 0.14848,-1.19027 0.16838,-0.71151 0.0199,0.47877 -0.0396,1.19067 -0.13221,1.58199 -0.0926,0.39133 -0.10888,-3.9e-4 -0.0362,-0.87048 z m 1.88908,-0.37631 c 0.0727,-0.87009 0.14849,-1.19027 0.16838,-0.7115 0.0199,0.47877 -0.0396,1.19066 -0.13221,1.58199 -0.0926,0.39132 -0.10888,-3.9e-4 -0.0362,-0.87049 z m -0.89146,-8.56795 c 0.0727,-0.8701 0.14848,-1.19027 0.16837,-0.71151 0.0199,0.47877 -0.0396,1.19067 -0.13221,1.58199 -0.0926,0.39133 -0.10888,-3.9e-4 -0.0362,-0.87048 z m 1.77345,0.54337 c 0.0297,-0.36259 0.10168,-0.50603 0.15999,-0.31874 0.0583,0.18728 0.034,0.48394 -0.054,0.65925 -0.088,0.17531 -0.13571,0.0221 -0.10603,-0.34051 z m 60.20736,-35.527162 c 0.005,-0.057 0.19843,-0.159233 0.43058,-0.227182 0.24205,-0.07084 0.34428,-0.01797 0.23966,0.12395 -0.17537,0.237893 -0.68773,0.316807 -0.67024,0.103232 z"
         id="path27" /><path
         style="fill:#020202"
         d="m -379.08181,143.21614 c -0.12456,-0.1927 -1.94978,-10.43266 -4.05604,-22.75545 l -3.82956,-22.405084 -15.14842,-9.774882 c -8.33163,-5.376186 -15.287,-9.906239 -15.45636,-10.066786 -0.49102,-0.465444 -0.28042,-1.275875 0.38754,-1.49132 0.81417,-0.262606 122.17571,-17.082897 122.85506,-17.027288 0.29009,0.02375 0.57841,0.217347 0.64072,0.430225 0.091,0.311017 -31.73689,72.978625 -33.26238,75.942665 -0.23717,0.46084 -0.61909,0.8121 -0.8614,0.79226 -0.23942,-0.0196 -6.02935,-4.15523 -12.86651,-9.1903 -6.83716,-5.03507 -12.5705,-9.17779 -12.74077,-9.20606 -0.17026,-0.0283 -5.48744,5.31861 -11.81593,11.88195 -6.3285,6.56334 -11.84055,12.2345 -12.249,12.60259 -0.81247,0.73219 -1.24928,0.80535 -1.59695,0.26748 z m 13.02446,-14.51974 c 5.96409,-6.20549 10.85005,-11.37451 10.85769,-11.48672 0.0162,-0.23824 -17.78464,-13.37137 -17.93303,-13.23064 -0.0549,0.0521 -0.86499,7.08031 -1.80009,15.61821 -0.9351,8.53791 -1.85725,16.61562 -2.04922,17.95047 -0.19197,1.33486 -0.25231,2.42799 -0.13409,2.42919 0.11822,0.001 5.09465,-5.07503 11.05874,-11.28051 z m -10.55676,-10.03528 c 1.05734,-9.37734 1.95485,-17.07525 1.99446,-17.10646 0.0396,-0.0312 13.99033,-7.367625 31.00161,-16.303153 17.01127,-8.935527 31.05805,-16.356426 31.21506,-16.490887 0.25209,-0.215877 -17.3311,6.86083 -59.77499,24.057651 -8.15154,3.302726 -12.84791,5.341905 -12.868,5.587324 -0.0427,0.521627 6.3029,37.480495 6.41834,37.382525 0.0501,-0.0425 0.95618,-7.74966 2.01352,-17.127 z m 48.62154,15.69076 c 0.009,-0.1103 29.47451,-66.951385 30.83209,-69.941169 0.67151,-1.478857 0.72795,-1.736578 0.35651,-1.627862 -0.48004,0.140501 -74.71546,39.083731 -75.09564,39.394491 -0.12763,0.10433 7.91686,6.17537 17.87664,13.49122 9.95978,7.31585 19.74143,14.51629 21.73701,16.00099 3.20423,2.38392 4.26364,3.04579 4.29339,2.68233 z m -15.99422,-54.828233 c 22.97916,-9.288079 41.6925,-16.924866 41.58521,-16.970637 -0.21236,-0.0906 -111.80771,15.421939 -111.97697,15.565584 -0.0569,0.04826 2.76793,1.941217 6.27734,4.206563 3.5094,2.265347 9.84009,6.36913 14.06818,9.119517 4.22809,2.750387 7.81761,4.992984 7.9767,4.983547 0.15909,-0.0094 19.09039,-7.616494 42.06954,-16.904574 z"
         id="path26" /></g><g
       id="g17"
       transform="matrix(-0.6170863,0.66939352,0.7483135,0.33661471,-725.82937,602.38713)"
       inkscape:path-effect="#path-effect25" /><g
       id="g44"
       transform="matrix(0.81388479,0.73332163,-0.67066544,0.53558404,224.3781,550.71384)"
       style="display:none"><path
         style="fill:#fef2e1"
         d="m -334.39739,129.89754 c -3.30439,-2.44082 -13.08266,-9.63258 -21.7295,-15.98168 -8.64684,-6.34911 -15.62187,-11.62094 -15.50007,-11.71519 0.43995,-0.34042 74.76139,-39.290162 74.81148,-39.206565 0.0658,0.109795 -31.28837,71.146885 -31.45171,71.258085 -0.0672,0.0458 -2.82582,-1.91382 -6.1302,-4.35465 z M -399.9161,87.420901 c -7.47457,-4.831623 -13.68107,-8.891929 -13.79223,-9.022902 -0.11115,-0.130973 24.59804,-3.688445 54.90932,-7.905493 30.31127,-4.217049 55.29349,-7.702769 55.51605,-7.746045 0.22255,-0.04327 -18.25253,7.478511 -41.05575,16.715081 -22.80321,9.236571 -41.57893,16.782597 -41.72382,16.768947 -0.14489,-0.01365 -6.379,-3.977964 -13.85357,-8.809588 z"
         id="path39" /><path
         style="fill:#d5c7b6"
         d="m -376.95242,139.01946 c 0.25264,-2.94397 3.90418,-34.63129 4.00018,-34.71276 0.0669,-0.0568 4.0797,2.8105 8.91739,6.37169 6.03737,4.44432 8.71638,6.56325 8.54258,6.75663 -0.52638,0.58569 -19.93111,20.74422 -20.70875,21.51321 l -0.81441,0.80534 z m -1.92752,-5.12944 c -0.12907,-0.7323 -1.52394,-8.84809 -3.09972,-18.0351 -1.57577,-9.187 -2.91219,-16.908989 -2.9698,-17.159969 -0.10812,-0.470951 -0.25115,-0.411634 54.56016,-22.627074 8.68353,-3.519499 15.66018,-6.294124 15.50367,-6.165832 -0.15651,0.128292 -13.51599,7.179506 -29.68774,15.669363 -16.17175,8.489858 -29.61809,15.616882 -29.88075,15.837832 -0.4251,0.35759 -0.68157,2.23704 -2.33436,17.10697 -1.63939,14.74936 -1.88426,16.54936 -2.09146,15.37381 z"
         id="path40" /><path
         style="fill:#a59f97"
         d="m -376.49842,134.06985 c 0.041,-0.43467 0.11204,-0.5759 0.1579,-0.31386 0.0459,0.26205 0.0123,0.61769 -0.0745,0.79031 -0.0868,0.17262 -0.12436,-0.0418 -0.0834,-0.47645 z m -1.26412,-7.13838 c 0.0416,-0.50763 0.11282,-0.71085 0.15837,-0.45161 0.0455,0.25924 0.0115,0.67457 -0.0755,0.92296 -0.0871,0.24838 -0.12438,0.0363 -0.0828,-0.47135 z m 2.26173,-1.80588 c 0.041,-0.43467 0.11205,-0.5759 0.1579,-0.31386 0.0459,0.26205 0.0123,0.61769 -0.0745,0.79031 -0.0868,0.17262 -0.12437,-0.0418 -0.0834,-0.47645 z m -1.26412,-7.13838 c 0.0415,-0.50763 0.11282,-0.71085 0.15837,-0.45161 0.0455,0.25924 0.0116,0.67457 -0.0756,0.92295 -0.0871,0.24839 -0.12437,0.0363 -0.0828,-0.47134 z m 2.26173,-1.80588 c 0.041,-0.43467 0.11205,-0.5759 0.15791,-0.31386 0.0458,0.26205 0.0123,0.61769 -0.0745,0.79031 -0.0868,0.17262 -0.12437,-0.0418 -0.0834,-0.47645 z m -1.26412,-7.13838 c 0.0415,-0.50763 0.11282,-0.71085 0.15837,-0.45161 0.0456,0.25924 0.0116,0.67457 -0.0756,0.92295 -0.0871,0.24839 -0.12437,0.0363 -0.0828,-0.47134 z m 2.26173,-1.80588 c 0.041,-0.43467 0.11205,-0.5759 0.15791,-0.31386 0.0459,0.26205 0.0123,0.61769 -0.0745,0.79031 -0.0868,0.17262 -0.12437,-0.0418 -0.0834,-0.47645 z"
         id="path41" /><path
         style="fill:#8c857a"
         d="m -376.36993,132.62029 c 0.0416,-0.50762 0.11282,-0.71084 0.15837,-0.4516 0.0455,0.25924 0.0115,0.67457 -0.0755,0.92295 -0.0871,0.24839 -0.12437,0.0363 -0.0828,-0.47135 z m -1.52111,-4.23927 c 0.041,-0.43466 0.11205,-0.5759 0.15791,-0.31385 0.0459,0.26204 0.0123,0.61768 -0.0745,0.7903 -0.0869,0.17262 -0.12437,-0.0418 -0.0834,-0.47645 z m 2.51872,-4.70499 c 0.0416,-0.50762 0.11282,-0.71084 0.15837,-0.4516 0.0455,0.25924 0.0116,0.67457 -0.0755,0.92295 -0.0871,0.24839 -0.12437,0.0363 -0.0828,-0.47135 z m -1.52212,-4.10662 c 0.0415,-0.50762 0.11281,-0.71084 0.15837,-0.4516 0.0455,0.25924 0.0115,0.67457 -0.0756,0.92295 -0.0871,0.24839 -0.12438,0.0363 -0.0828,-0.47135 z m 2.51973,-4.83764 c 0.0416,-0.50762 0.11282,-0.71084 0.15837,-0.4516 0.0456,0.25924 0.0116,0.67457 -0.0756,0.92295 -0.0871,0.24839 -0.12437,0.0363 -0.0828,-0.47135 z m -1.52212,-4.10662 c 0.0416,-0.50762 0.11282,-0.71084 0.15837,-0.4516 0.0455,0.25924 0.0115,0.67457 -0.0756,0.92295 -0.0871,0.24839 -0.12437,0.0363 -0.0828,-0.47135 z m 2.51974,-4.83764 c 0.0416,-0.50762 0.11282,-0.71085 0.15837,-0.4516 0.0455,0.25924 0.0115,0.67457 -0.0755,0.92295 -0.0871,0.24838 -0.12438,0.0363 -0.0828,-0.47135 z"
         id="path42" /><path
         style="fill:#625f5a"
         d="m -378.12066,143.52642 c 0.004,-0.0548 0.22914,-0.24542 0.49925,-0.4237 0.4451,-0.29377 0.45366,-0.28368 0.0914,0.10771 -0.38044,0.41106 -0.60843,0.53303 -0.59066,0.31599 z m 0.90779,-4.60389 c 0.0475,-0.58014 0.13321,-1.05097 0.1905,-1.04628 0.0573,0.005 0.11056,0.4869 0.1184,1.07157 0.008,0.58467 -0.0779,1.0555 -0.1905,1.04628 -0.1126,-0.009 -0.16589,-0.49142 -0.1184,-1.07157 z m -0.82055,-8.42941 c 0.0727,-0.8701 0.14849,-1.19027 0.16838,-0.71151 0.0199,0.47877 -0.0396,1.19067 -0.13221,1.58199 -0.0926,0.39133 -0.10888,-3.9e-4 -0.0362,-0.87048 z m 1.8675,-0.11261 c 0.0727,-0.87009 0.14848,-1.19027 0.16837,-0.7115 0.0199,0.47877 -0.0396,1.19066 -0.1322,1.58199 -0.0926,0.39133 -0.10888,-3.9e-4 -0.0362,-0.87049 z m -0.89147,-8.56795 c 0.0727,-0.8701 0.14848,-1.19027 0.16837,-0.7115 0.0199,0.47876 -0.0396,1.19066 -0.1322,1.58198 -0.0926,0.39133 -0.10888,-3.9e-4 -0.0362,-0.87048 z m 1.88908,-0.37631 c 0.0727,-0.87009 0.14848,-1.19027 0.16838,-0.7115 0.0199,0.47877 -0.0396,1.19066 -0.13221,1.58199 -0.0926,0.39133 -0.10888,-3.9e-4 -0.0362,-0.87049 z m -0.89147,-8.56795 c 0.0727,-0.8701 0.14848,-1.19027 0.16838,-0.71151 0.0199,0.47877 -0.0396,1.19067 -0.13221,1.58199 -0.0926,0.39133 -0.10888,-3.9e-4 -0.0362,-0.87048 z m 1.88908,-0.37631 c 0.0727,-0.87009 0.14849,-1.19027 0.16838,-0.7115 0.0199,0.47877 -0.0396,1.19066 -0.13221,1.58199 -0.0926,0.39132 -0.10888,-3.9e-4 -0.0362,-0.87049 z m -0.89146,-8.56795 c 0.0727,-0.8701 0.14848,-1.19027 0.16837,-0.71151 0.0199,0.47877 -0.0396,1.19067 -0.13221,1.58199 -0.0926,0.39133 -0.10888,-3.9e-4 -0.0362,-0.87048 z m 1.77345,0.54337 c 0.0297,-0.36259 0.10168,-0.50603 0.15999,-0.31874 0.0583,0.18728 0.034,0.48394 -0.054,0.65925 -0.088,0.17531 -0.13571,0.0221 -0.10603,-0.34051 z m 60.20736,-35.527162 c 0.005,-0.057 0.19843,-0.159233 0.43058,-0.227182 0.24205,-0.07084 0.34428,-0.01797 0.23966,0.12395 -0.17537,0.237893 -0.68773,0.316807 -0.67024,0.103232 z"
         id="path43" /><path
         style="fill:#020202"
         d="m -379.08181,143.21614 c -0.12456,-0.1927 -1.94978,-10.43266 -4.05604,-22.75545 l -3.82956,-22.405084 -15.14842,-9.774882 c -8.33163,-5.376186 -15.287,-9.906239 -15.45636,-10.066786 -0.49102,-0.465444 -0.28042,-1.275875 0.38754,-1.49132 0.81417,-0.262606 122.17571,-17.082897 122.85506,-17.027288 0.29009,0.02375 0.57841,0.217347 0.64072,0.430225 0.091,0.311017 -31.73689,72.978625 -33.26238,75.942665 -0.23717,0.46084 -0.61909,0.8121 -0.8614,0.79226 -0.23942,-0.0196 -6.02935,-4.15523 -12.86651,-9.1903 -6.83716,-5.03507 -12.5705,-9.17779 -12.74077,-9.20606 -0.17026,-0.0283 -5.48744,5.31861 -11.81593,11.88195 -6.3285,6.56334 -11.84055,12.2345 -12.249,12.60259 -0.81247,0.73219 -1.24928,0.80535 -1.59695,0.26748 z m 13.02446,-14.51974 c 5.96409,-6.20549 10.85005,-11.37451 10.85769,-11.48672 0.0162,-0.23824 -17.78464,-13.37137 -17.93303,-13.23064 -0.0549,0.0521 -0.86499,7.08031 -1.80009,15.61821 -0.9351,8.53791 -1.85725,16.61562 -2.04922,17.95047 -0.19197,1.33486 -0.25231,2.42799 -0.13409,2.42919 0.11822,0.001 5.09465,-5.07503 11.05874,-11.28051 z m -10.55676,-10.03528 c 1.05734,-9.37734 1.95485,-17.07525 1.99446,-17.10646 0.0396,-0.0312 13.99033,-7.367625 31.00161,-16.303153 17.01127,-8.935527 31.05805,-16.356426 31.21506,-16.490887 0.25209,-0.215877 -17.3311,6.86083 -59.77499,24.057651 -8.15154,3.302726 -12.84791,5.341905 -12.868,5.587324 -0.0427,0.521627 6.3029,37.480495 6.41834,37.382525 0.0501,-0.0425 0.95618,-7.74966 2.01352,-17.127 z m 48.62154,15.69076 c 0.009,-0.1103 29.47451,-66.951385 30.83209,-69.941169 0.67151,-1.478857 0.72795,-1.736578 0.35651,-1.627862 -0.48004,0.140501 -74.71546,39.083731 -75.09564,39.394491 -0.12763,0.10433 7.91686,6.17537 17.87664,13.49122 9.95978,7.31585 19.74143,14.51629 21.73701,16.00099 3.20423,2.38392 4.26364,3.04579 4.29339,2.68233 z m -15.99422,-54.828233 c 22.97916,-9.288079 41.6925,-16.924866 41.58521,-16.970637 -0.21236,-0.0906 -111.80771,15.421939 -111.97697,15.565584 -0.0569,0.04826 2.76793,1.941217 6.27734,4.206563 3.5094,2.265347 9.84009,6.36913 14.06818,9.119517 4.22809,2.750387 7.81761,4.992984 7.9767,4.983547 0.15909,-0.0094 19.09039,-7.616494 42.06954,-16.904574 z"
         id="path44" /></g><g
       id="g58"
       transform="matrix(-0.76890009,0.6780968,0.64570695,0.51347124,-207.18191,327.02356)"
       inkscape:path-effect="#path-effect58"
       style="display:none"><path
         style="fill:#fef2e1"
         d="m -334.39739,129.89754 c -3.30439,-2.44082 -13.08266,-9.63258 -21.7295,-15.98168 -8.64684,-6.34911 -15.62187,-11.62094 -15.50007,-11.71519 0.43995,-0.34042 74.76139,-39.290163 74.81148,-39.206566 0.0658,0.109795 -31.28837,71.146886 -31.45171,71.258086 -0.0672,0.0458 -2.82582,-1.91382 -6.1302,-4.35465 z M -399.9161,87.4209 c -7.47457,-4.831623 -13.68107,-8.891929 -13.79223,-9.022902 -0.11115,-0.130973 24.59804,-3.688445 54.90932,-7.905493 30.31127,-4.217049 55.29349,-7.702769 55.51605,-7.746045 0.22255,-0.04327 -18.25253,7.478511 -41.05575,16.715081 -22.80321,9.236571 -41.57893,16.782597 -41.72382,16.768947 -0.14489,-0.01365 -6.379,-3.977964 -13.85357,-8.809588 z"
         id="path53"
         inkscape:original-d="m -334.39739,129.89754 c -3.30439,-2.44082 -13.08266,-9.63258 -21.7295,-15.98168 -8.64684,-6.34911 -15.62187,-11.62094 -15.50007,-11.71519 0.43995,-0.34042 74.76139,-39.290162 74.81148,-39.206565 0.0658,0.109795 -31.28837,71.146885 -31.45171,71.258085 -0.0672,0.0458 -2.82582,-1.91382 -6.1302,-4.35465 z M -399.9161,87.420901 c -7.47457,-4.831623 -13.68107,-8.891929 -13.79223,-9.022902 -0.11115,-0.130973 24.59804,-3.688445 54.90932,-7.905493 30.31127,-4.217049 55.29349,-7.702769 55.51605,-7.746045 0.22255,-0.04327 -18.25253,7.478511 -41.05575,16.715081 -22.80321,9.236571 -41.57893,16.782597 -41.72382,16.768947 -0.14489,-0.01365 -6.379,-3.977964 -13.85357,-8.809588 z" /><path
         style="fill:#d5c7b6"
         d="m -376.95242,139.01946 c 0.25264,-2.94397 3.90418,-34.63129 4.00018,-34.71276 0.0669,-0.0568 4.0797,2.8105 8.91739,6.37169 6.03737,4.44432 8.71638,6.56325 8.54258,6.75663 -0.52638,0.58569 -19.93111,20.74422 -20.70875,21.51321 l -0.81441,0.80534 z m -1.92752,-5.12944 c -0.12907,-0.7323 -1.52394,-8.84809 -3.09972,-18.0351 -1.57577,-9.187 -2.91219,-16.908991 -2.9698,-17.159971 -0.10812,-0.47095 -0.25115,-0.411633 54.56016,-22.627073 8.68353,-3.519499 15.66018,-6.294124 15.50367,-6.165832 -0.15651,0.128292 -13.51599,7.179506 -29.68774,15.669363 -16.17175,8.489858 -29.61809,15.616883 -29.88075,15.837833 -0.4251,0.35759 -0.68157,2.23704 -2.33436,17.10697 -1.63939,14.74936 -1.88426,16.54936 -2.09146,15.37381 z"
         id="path54"
         inkscape:original-d="m -376.95242,139.01946 c 0.25264,-2.94397 3.90418,-34.63129 4.00018,-34.71276 0.0669,-0.0568 4.0797,2.8105 8.91739,6.37169 6.03737,4.44432 8.71638,6.56325 8.54258,6.75663 -0.52638,0.58569 -19.93111,20.74422 -20.70875,21.51321 l -0.81441,0.80534 z m -1.92752,-5.12944 c -0.12907,-0.7323 -1.52394,-8.84809 -3.09972,-18.0351 -1.57577,-9.187 -2.91219,-16.908989 -2.9698,-17.159969 -0.10812,-0.470951 -0.25115,-0.411634 54.56016,-22.627074 8.68353,-3.519499 15.66018,-6.294124 15.50367,-6.165832 -0.15651,0.128292 -13.51599,7.179506 -29.68774,15.669363 -16.17175,8.489858 -29.61809,15.616882 -29.88075,15.837832 -0.4251,0.35759 -0.68157,2.23704 -2.33436,17.10697 -1.63939,14.74936 -1.88426,16.54936 -2.09146,15.37381 z" /><path
         style="fill:#a59f97"
         d="m -376.49842,134.06985 c 0.041,-0.43467 0.11204,-0.5759 0.1579,-0.31386 0.0459,0.26205 0.0123,0.61769 -0.0745,0.79031 -0.0868,0.17262 -0.12436,-0.0418 -0.0834,-0.47645 z m -1.26412,-7.13838 c 0.0416,-0.50763 0.11282,-0.71085 0.15837,-0.45161 0.0455,0.25924 0.0115,0.67457 -0.0755,0.92296 -0.0871,0.24838 -0.12438,0.0363 -0.0828,-0.47135 z m 2.26173,-1.80588 c 0.041,-0.43467 0.11205,-0.5759 0.1579,-0.31386 0.0459,0.26205 0.0123,0.61769 -0.0745,0.79031 -0.0868,0.17262 -0.12437,-0.0418 -0.0834,-0.47645 z m -1.26412,-7.13838 c 0.0415,-0.50763 0.11282,-0.71085 0.15837,-0.45161 0.0455,0.25924 0.0116,0.67457 -0.0756,0.92295 -0.0871,0.24839 -0.12437,0.0363 -0.0828,-0.47134 z m 2.26173,-1.80588 c 0.041,-0.43467 0.11205,-0.5759 0.15791,-0.31386 0.0458,0.26205 0.0123,0.61769 -0.0745,0.79031 -0.0868,0.17262 -0.12437,-0.0418 -0.0834,-0.47645 z m -1.26412,-7.13838 c 0.0415,-0.50763 0.11282,-0.71085 0.15837,-0.45161 0.0456,0.25924 0.0116,0.67457 -0.0756,0.92295 -0.0871,0.24839 -0.12437,0.0363 -0.0828,-0.47134 z m 2.26173,-1.80588 c 0.041,-0.43467 0.11205,-0.5759 0.15791,-0.31386 0.0459,0.26205 0.0123,0.61769 -0.0745,0.79031 -0.0868,0.17262 -0.12437,-0.0418 -0.0834,-0.47645 z"
         id="path55"
         inkscape:original-d="m -376.49842,134.06985 c 0.041,-0.43467 0.11204,-0.5759 0.1579,-0.31386 0.0459,0.26205 0.0123,0.61769 -0.0745,0.79031 -0.0868,0.17262 -0.12436,-0.0418 -0.0834,-0.47645 z m -1.26412,-7.13838 c 0.0416,-0.50763 0.11282,-0.71085 0.15837,-0.45161 0.0455,0.25924 0.0115,0.67457 -0.0755,0.92296 -0.0871,0.24838 -0.12438,0.0363 -0.0828,-0.47135 z m 2.26173,-1.80588 c 0.041,-0.43467 0.11205,-0.5759 0.1579,-0.31386 0.0459,0.26205 0.0123,0.61769 -0.0745,0.79031 -0.0868,0.17262 -0.12437,-0.0418 -0.0834,-0.47645 z m -1.26412,-7.13838 c 0.0415,-0.50763 0.11282,-0.71085 0.15837,-0.45161 0.0455,0.25924 0.0116,0.67457 -0.0756,0.92295 -0.0871,0.24839 -0.12437,0.0363 -0.0828,-0.47134 z m 2.26173,-1.80588 c 0.041,-0.43467 0.11205,-0.5759 0.15791,-0.31386 0.0458,0.26205 0.0123,0.61769 -0.0745,0.79031 -0.0868,0.17262 -0.12437,-0.0418 -0.0834,-0.47645 z m -1.26412,-7.13838 c 0.0415,-0.50763 0.11282,-0.71085 0.15837,-0.45161 0.0456,0.25924 0.0116,0.67457 -0.0756,0.92295 -0.0871,0.24839 -0.12437,0.0363 -0.0828,-0.47134 z m 2.26173,-1.80588 c 0.041,-0.43467 0.11205,-0.5759 0.15791,-0.31386 0.0459,0.26205 0.0123,0.61769 -0.0745,0.79031 -0.0868,0.17262 -0.12437,-0.0418 -0.0834,-0.47645 z" /><path
         style="fill:#8c857a"
         d="m -376.36993,132.62029 c 0.0416,-0.50762 0.11282,-0.71084 0.15837,-0.4516 0.0455,0.25924 0.0115,0.67457 -0.0755,0.92295 -0.0871,0.24839 -0.12437,0.0363 -0.0828,-0.47135 z m -1.52111,-4.23927 c 0.041,-0.43466 0.11205,-0.5759 0.15791,-0.31385 0.0459,0.26204 0.0123,0.61768 -0.0745,0.7903 -0.0869,0.17262 -0.12437,-0.0418 -0.0834,-0.47645 z m 2.51872,-4.70499 c 0.0416,-0.50762 0.11282,-0.71084 0.15837,-0.4516 0.0455,0.25924 0.0116,0.67457 -0.0755,0.92295 -0.0871,0.24839 -0.12437,0.0363 -0.0828,-0.47135 z m -1.52212,-4.10662 c 0.0415,-0.50762 0.11281,-0.71084 0.15837,-0.4516 0.0455,0.25924 0.0115,0.67457 -0.0756,0.92295 -0.0871,0.24839 -0.12438,0.0363 -0.0828,-0.47135 z m 2.51973,-4.83764 c 0.0416,-0.50762 0.11282,-0.71084 0.15837,-0.4516 0.0456,0.25924 0.0116,0.67457 -0.0756,0.92295 -0.0871,0.24839 -0.12437,0.0363 -0.0828,-0.47135 z m -1.52212,-4.10662 c 0.0416,-0.50762 0.11282,-0.71084 0.15837,-0.4516 0.0455,0.25924 0.0115,0.67457 -0.0756,0.92295 -0.0871,0.24839 -0.12437,0.0363 -0.0828,-0.47135 z m 2.51974,-4.83764 c 0.0416,-0.50762 0.11282,-0.71085 0.15837,-0.4516 0.0455,0.25924 0.0115,0.67457 -0.0755,0.92295 -0.0871,0.24838 -0.12438,0.0363 -0.0828,-0.47135 z"
         id="path56"
         inkscape:original-d="m -376.36993,132.62029 c 0.0416,-0.50762 0.11282,-0.71084 0.15837,-0.4516 0.0455,0.25924 0.0115,0.67457 -0.0755,0.92295 -0.0871,0.24839 -0.12437,0.0363 -0.0828,-0.47135 z m -1.52111,-4.23927 c 0.041,-0.43466 0.11205,-0.5759 0.15791,-0.31385 0.0459,0.26204 0.0123,0.61768 -0.0745,0.7903 -0.0869,0.17262 -0.12437,-0.0418 -0.0834,-0.47645 z m 2.51872,-4.70499 c 0.0416,-0.50762 0.11282,-0.71084 0.15837,-0.4516 0.0455,0.25924 0.0116,0.67457 -0.0755,0.92295 -0.0871,0.24839 -0.12437,0.0363 -0.0828,-0.47135 z m -1.52212,-4.10662 c 0.0415,-0.50762 0.11281,-0.71084 0.15837,-0.4516 0.0455,0.25924 0.0115,0.67457 -0.0756,0.92295 -0.0871,0.24839 -0.12438,0.0363 -0.0828,-0.47135 z m 2.51973,-4.83764 c 0.0416,-0.50762 0.11282,-0.71084 0.15837,-0.4516 0.0456,0.25924 0.0116,0.67457 -0.0756,0.92295 -0.0871,0.24839 -0.12437,0.0363 -0.0828,-0.47135 z m -1.52212,-4.10662 c 0.0416,-0.50762 0.11282,-0.71084 0.15837,-0.4516 0.0455,0.25924 0.0115,0.67457 -0.0756,0.92295 -0.0871,0.24839 -0.12437,0.0363 -0.0828,-0.47135 z m 2.51974,-4.83764 c 0.0416,-0.50762 0.11282,-0.71085 0.15837,-0.4516 0.0455,0.25924 0.0115,0.67457 -0.0755,0.92295 -0.0871,0.24838 -0.12438,0.0363 -0.0828,-0.47135 z" /><path
         style="fill:#625f5a"
         d="m -378.12066,143.52642 c 0.004,-0.0548 0.22914,-0.24542 0.49925,-0.4237 0.4451,-0.29377 0.45366,-0.28368 0.0914,0.10771 -0.38044,0.41106 -0.60843,0.53303 -0.59066,0.31599 z m 0.90779,-4.60389 c 0.0475,-0.58014 0.13321,-1.05097 0.1905,-1.04628 0.0573,0.005 0.11056,0.4869 0.1184,1.07157 0.008,0.58467 -0.0779,1.0555 -0.1905,1.04628 -0.1126,-0.009 -0.16589,-0.49142 -0.1184,-1.07157 z m -0.82055,-8.42941 c 0.0727,-0.8701 0.14849,-1.19027 0.16838,-0.71151 0.0199,0.47877 -0.0396,1.19067 -0.13221,1.58199 -0.0926,0.39133 -0.10888,-3.9e-4 -0.0362,-0.87048 z m 1.8675,-0.11261 c 0.0727,-0.87009 0.14848,-1.19027 0.16837,-0.7115 0.0199,0.47877 -0.0396,1.19066 -0.1322,1.58199 -0.0926,0.39133 -0.10888,-3.9e-4 -0.0362,-0.87049 z m -0.89147,-8.56795 c 0.0727,-0.8701 0.14848,-1.19027 0.16837,-0.7115 0.0199,0.47876 -0.0396,1.19066 -0.1322,1.58198 -0.0926,0.39133 -0.10888,-3.9e-4 -0.0362,-0.87048 z m 1.88908,-0.37631 c 0.0727,-0.87009 0.14848,-1.19027 0.16838,-0.7115 0.0199,0.47877 -0.0396,1.19066 -0.13221,1.58199 -0.0926,0.39133 -0.10888,-3.9e-4 -0.0362,-0.87049 z m -0.89147,-8.56795 c 0.0727,-0.8701 0.14848,-1.19027 0.16838,-0.71151 0.0199,0.47877 -0.0396,1.19067 -0.13221,1.58199 -0.0926,0.39133 -0.10888,-3.9e-4 -0.0362,-0.87048 z m 1.88908,-0.37631 c 0.0727,-0.87009 0.14849,-1.19027 0.16838,-0.7115 0.0199,0.47877 -0.0396,1.19066 -0.13221,1.58199 -0.0926,0.39132 -0.10888,-3.9e-4 -0.0362,-0.87049 z m -0.89146,-8.56795 c 0.0727,-0.8701 0.14848,-1.19027 0.16837,-0.71151 0.0199,0.47877 -0.0396,1.19067 -0.13221,1.58199 -0.0926,0.39133 -0.10888,-3.9e-4 -0.0362,-0.87048 z m 1.77345,0.54337 c 0.0297,-0.36259 0.10168,-0.50603 0.15999,-0.31874 0.0583,0.18728 0.034,0.48394 -0.054,0.65925 -0.088,0.17531 -0.13571,0.0221 -0.10603,-0.34051 z m 60.20736,-35.527163 c 0.005,-0.057 0.19843,-0.159233 0.43058,-0.227182 0.24205,-0.07084 0.34428,-0.01797 0.23966,0.12395 -0.17537,0.237893 -0.68773,0.316807 -0.67024,0.103232 z"
         id="path57"
         inkscape:original-d="m -378.12066,143.52642 c 0.004,-0.0548 0.22914,-0.24542 0.49925,-0.4237 0.4451,-0.29377 0.45366,-0.28368 0.0914,0.10771 -0.38044,0.41106 -0.60843,0.53303 -0.59066,0.31599 z m 0.90779,-4.60389 c 0.0475,-0.58014 0.13321,-1.05097 0.1905,-1.04628 0.0573,0.005 0.11056,0.4869 0.1184,1.07157 0.008,0.58467 -0.0779,1.0555 -0.1905,1.04628 -0.1126,-0.009 -0.16589,-0.49142 -0.1184,-1.07157 z m -0.82055,-8.42941 c 0.0727,-0.8701 0.14849,-1.19027 0.16838,-0.71151 0.0199,0.47877 -0.0396,1.19067 -0.13221,1.58199 -0.0926,0.39133 -0.10888,-3.9e-4 -0.0362,-0.87048 z m 1.8675,-0.11261 c 0.0727,-0.87009 0.14848,-1.19027 0.16837,-0.7115 0.0199,0.47877 -0.0396,1.19066 -0.1322,1.58199 -0.0926,0.39133 -0.10888,-3.9e-4 -0.0362,-0.87049 z m -0.89147,-8.56795 c 0.0727,-0.8701 0.14848,-1.19027 0.16837,-0.7115 0.0199,0.47876 -0.0396,1.19066 -0.1322,1.58198 -0.0926,0.39133 -0.10888,-3.9e-4 -0.0362,-0.87048 z m 1.88908,-0.37631 c 0.0727,-0.87009 0.14848,-1.19027 0.16838,-0.7115 0.0199,0.47877 -0.0396,1.19066 -0.13221,1.58199 -0.0926,0.39133 -0.10888,-3.9e-4 -0.0362,-0.87049 z m -0.89147,-8.56795 c 0.0727,-0.8701 0.14848,-1.19027 0.16838,-0.71151 0.0199,0.47877 -0.0396,1.19067 -0.13221,1.58199 -0.0926,0.39133 -0.10888,-3.9e-4 -0.0362,-0.87048 z m 1.88908,-0.37631 c 0.0727,-0.87009 0.14849,-1.19027 0.16838,-0.7115 0.0199,0.47877 -0.0396,1.19066 -0.13221,1.58199 -0.0926,0.39132 -0.10888,-3.9e-4 -0.0362,-0.87049 z m -0.89146,-8.56795 c 0.0727,-0.8701 0.14848,-1.19027 0.16837,-0.71151 0.0199,0.47877 -0.0396,1.19067 -0.13221,1.58199 -0.0926,0.39133 -0.10888,-3.9e-4 -0.0362,-0.87048 z m 1.77345,0.54337 c 0.0297,-0.36259 0.10168,-0.50603 0.15999,-0.31874 0.0583,0.18728 0.034,0.48394 -0.054,0.65925 -0.088,0.17531 -0.13571,0.0221 -0.10603,-0.34051 z m 60.20736,-35.527162 c 0.005,-0.057 0.19843,-0.159233 0.43058,-0.227182 0.24205,-0.07084 0.34428,-0.01797 0.23966,0.12395 -0.17537,0.237893 -0.68773,0.316807 -0.67024,0.103232 z" /><path
         style="fill:#020202"
         d="m -379.08181,143.21614 c -0.12456,-0.1927 -1.94978,-10.43266 -4.05604,-22.75545 l -3.82956,-22.405085 -15.14842,-9.774882 c -8.33163,-5.376186 -15.287,-9.906239 -15.45636,-10.066786 -0.49102,-0.465444 -0.28042,-1.275875 0.38754,-1.49132 0.81417,-0.262606 122.17571,-17.082896 122.85506,-17.027287 0.29009,0.02375 0.57841,0.217347 0.64072,0.430225 0.091,0.311017 -31.73689,72.978625 -33.26238,75.942665 -0.23717,0.46084 -0.61909,0.8121 -0.8614,0.79226 -0.23942,-0.0196 -6.02935,-4.15523 -12.86651,-9.1903 -6.83716,-5.03507 -12.5705,-9.17779 -12.74077,-9.20606 -0.17026,-0.0283 -5.48744,5.31861 -11.81593,11.88195 -6.3285,6.56334 -11.84055,12.2345 -12.249,12.60259 -0.81247,0.73219 -1.24928,0.80535 -1.59695,0.26748 z m 13.02446,-14.51974 c 5.96409,-6.20549 10.85005,-11.37451 10.85769,-11.48672 0.0162,-0.23824 -17.78464,-13.37137 -17.93303,-13.23064 -0.0549,0.0521 -0.86499,7.08031 -1.80009,15.61821 -0.9351,8.53791 -1.85725,16.61562 -2.04922,17.95047 -0.19197,1.33486 -0.25231,2.42799 -0.13409,2.42919 0.11822,0.001 5.09465,-5.07503 11.05874,-11.28051 z m -10.55676,-10.03528 c 1.05734,-9.37734 1.95485,-17.07525 1.99446,-17.10646 0.0396,-0.0312 13.99033,-7.367626 31.00161,-16.303154 17.01127,-8.935527 31.05805,-16.356426 31.21506,-16.490887 0.25209,-0.215877 -17.3311,6.86083 -59.77499,24.057651 -8.15154,3.302726 -12.84791,5.341905 -12.868,5.587324 -0.0427,0.521626 6.3029,37.480496 6.41834,37.382526 0.0501,-0.0425 0.95618,-7.74966 2.01352,-17.127 z m 48.62154,15.69076 c 0.009,-0.1103 29.47451,-66.951386 30.83209,-69.94117 0.67151,-1.478857 0.72795,-1.736578 0.35651,-1.627862 -0.48004,0.140501 -74.71546,39.083732 -75.09564,39.394492 -0.12763,0.10433 7.91686,6.17537 17.87664,13.49122 9.95978,7.31585 19.74143,14.51629 21.73701,16.00099 3.20423,2.38392 4.26364,3.04579 4.29339,2.68233 z m -15.99422,-54.828234 c 22.97916,-9.288079 41.6925,-16.924866 41.58521,-16.970636 -0.21236,-0.0906 -111.80771,15.421938 -111.97697,15.565583 -0.0569,0.04826 2.76793,1.941217 6.27734,4.206563 3.5094,2.265347 9.84009,6.36913 14.06818,9.119517 4.22809,2.750387 7.81761,4.992984 7.9767,4.983547 0.15909,-0.0094 19.09039,-7.616494 42.06954,-16.904574 z"
         id="path58"
         inkscape:original-d="m -379.08181,143.21614 c -0.12456,-0.1927 -1.94978,-10.43266 -4.05604,-22.75545 l -3.82956,-22.405084 -15.14842,-9.774882 c -8.33163,-5.376186 -15.287,-9.906239 -15.45636,-10.066786 -0.49102,-0.465444 -0.28042,-1.275875 0.38754,-1.49132 0.81417,-0.262606 122.17571,-17.082897 122.85506,-17.027288 0.29009,0.02375 0.57841,0.217347 0.64072,0.430225 0.091,0.311017 -31.73689,72.978625 -33.26238,75.942665 -0.23717,0.46084 -0.61909,0.8121 -0.8614,0.79226 -0.23942,-0.0196 -6.02935,-4.15523 -12.86651,-9.1903 -6.83716,-5.03507 -12.5705,-9.17779 -12.74077,-9.20606 -0.17026,-0.0283 -5.48744,5.31861 -11.81593,11.88195 -6.3285,6.56334 -11.84055,12.2345 -12.249,12.60259 -0.81247,0.73219 -1.24928,0.80535 -1.59695,0.26748 z m 13.02446,-14.51974 c 5.96409,-6.20549 10.85005,-11.37451 10.85769,-11.48672 0.0162,-0.23824 -17.78464,-13.37137 -17.93303,-13.23064 -0.0549,0.0521 -0.86499,7.08031 -1.80009,15.61821 -0.9351,8.53791 -1.85725,16.61562 -2.04922,17.95047 -0.19197,1.33486 -0.25231,2.42799 -0.13409,2.42919 0.11822,0.001 5.09465,-5.07503 11.05874,-11.28051 z m -10.55676,-10.03528 c 1.05734,-9.37734 1.95485,-17.07525 1.99446,-17.10646 0.0396,-0.0312 13.99033,-7.367625 31.00161,-16.303153 17.01127,-8.935527 31.05805,-16.356426 31.21506,-16.490887 0.25209,-0.215877 -17.3311,6.86083 -59.77499,24.057651 -8.15154,3.302726 -12.84791,5.341905 -12.868,5.587324 -0.0427,0.521627 6.3029,37.480495 6.41834,37.382525 0.0501,-0.0425 0.95618,-7.74966 2.01352,-17.127 z m 48.62154,15.69076 c 0.009,-0.1103 29.47451,-66.951385 30.83209,-69.941169 0.67151,-1.478857 0.72795,-1.736578 0.35651,-1.627862 -0.48004,0.140501 -74.71546,39.083731 -75.09564,39.394491 -0.12763,0.10433 7.91686,6.17537 17.87664,13.49122 9.95978,7.31585 19.74143,14.51629 21.73701,16.00099 3.20423,2.38392 4.26364,3.04579 4.29339,2.68233 z m -15.99422,-54.828233 c 22.97916,-9.288079 41.6925,-16.924866 41.58521,-16.970637 -0.21236,-0.0906 -111.80771,15.421939 -111.97697,15.565584 -0.0569,0.04826 2.76793,1.941217 6.27734,4.206563 3.5094,2.265347 9.84009,6.36913 14.06818,9.119517 4.22809,2.750387 7.81761,4.992984 7.9767,4.983547 0.15909,-0.0094 19.09039,-7.616494 42.06954,-16.904574 z" /></g></g></svg>
